# xmcd CD database file
#
# Track frame offsets:
#	150
#	18451
#	39871
#	60715
#	83640
#	130144
#	158972
#	177693
#	213325
#	255907
#
# Disc length: 3698 seconds
#
# Revision: 0
# Processed by: cddbd v1.5.1PL0 Copyright (c) Steve Scherf et al.
# Submitted via: CDex 1.51
#
DISCID=7d0e700a
DTITLE=Tom Kenyon - Imaginarium 
DYEAR=2003
DGENRE=New Age
TTITLE0=Imaginarium
TTITLE1=The Conversion Of Dolorosa
TTITLE2=Body Rub
TTITLE3=The Healing Spheres At Madrona Point
TTITLE4=Upon The Indigenous Sea
TTITLE5=An Unexpected Breeze
TTITLE6=The Calling Of The Heru Boat
TTITLE7=Ode To The Electrons
TTITLE8=Ohana Dance For Human And Leviathan
TTITLE9=The Boatman
EXTD=YEAR: 2003
EXTT0=
EXTT1=
EXTT2=
EXTT3=
EXTT4=
EXTT5=
EXTT6=
EXTT7=
EXTT8=
EXTT9=
PLAYORDER=
